<?xml version="1.0" encoding="utf-8"?>
<!-- Generator: Adobe Illustrator 17.0.0, SVG Export Plug-In . SVG Version: 6.00 Build 0)  -->
<!DOCTYPE svg PUBLIC "-//W3C//DTD SVG 1.1//EN" "http://www.w3.org/Graphics/SVG/1.1/DTD/svg11.dtd">
<svg version="1.1" id="Capa_1" xmlns="http://www.w3.org/2000/svg" xmlns:xlink="http://www.w3.org/1999/xlink" x="0px" y="0px"
	 width="586px" height="252px" viewBox="0 0 586 252" enable-background="new 0 0 586 252" xml:space="preserve">
<g>
	<g>
		<path fill="#FFFFFF" d="M155.106,223.043c-1.794-2.885-4.68-3.308-7.459-3.343c-2.886,0-7.46,1.056-7.46,4.997
			c0,3.132,3.378,3.87,7.53,4.645c4.75,0.915,9.676,1.76,9.676,7.072c-0.035,5.56-5.63,6.896-9.746,6.896
			c-3.836,0-8.199-1.583-10.099-5.348l1.688-0.845c1.513,2.991,5.384,4.469,8.41,4.469c3.025,0,7.847-0.845,7.847-5.208
			c0.035-3.694-4.047-4.504-8.094-5.277c-4.504-0.88-9.113-1.795-9.113-6.334c-0.105-5.208,5.313-6.826,9.36-6.826
			c3.519,0,6.579,0.563,9.008,4.188L155.106,223.043z"/>
		<path fill="#FFFFFF" d="M199.264,230.644c-0.035,6.475-4.152,12.702-12.421,12.702s-12.421-6.263-12.421-12.772
			c0-6.615,4.117-12.667,12.421-12.667S199.299,223.993,199.264,230.644z M176.287,230.608c0.035,5.56,3.554,10.979,10.556,10.979
			c7.037,0,10.591-5.419,10.591-10.979c0-5.7-3.519-10.943-10.591-10.943S176.252,224.803,176.287,230.608z"/>
		<path fill="#FFFFFF" d="M219.74,218.293v22.836h13.863v1.795H217.84v-24.631H219.74z"/>
		<path fill="#FFFFFF" d="M268.684,218.293V233.6c0,12.878-18.86,12.913-18.86,0v-15.307h1.865V233.6c0,10.591,15.13,10.556,15.13,0
			v-15.307H268.684z"/>
		<path fill="#FFFFFF" d="M294.931,220.018h-8.902v-1.689h19.705v1.689h-8.902v22.906h-1.9V220.018z"/>
		<path fill="#FFFFFF" d="M323.431,242.924v-24.631h1.865v24.631H323.431z"/>
		<path fill="#FFFFFF" d="M369.313,230.644c-0.035,6.475-4.152,12.702-12.421,12.702s-12.421-6.263-12.421-12.772
			c0-6.615,4.117-12.667,12.421-12.667S369.348,223.993,369.313,230.644z M346.336,230.608c0.035,5.56,3.554,10.979,10.556,10.979
			c7.037,0,10.591-5.419,10.591-10.979c0-5.7-3.519-10.943-10.591-10.943S346.301,224.803,346.336,230.608z"/>
		<path fill="#FFFFFF" d="M388.734,218.293l16.572,20.373v-20.373h1.865v24.631h-0.739l-16.607-20.338v20.338h-1.9v-24.631H388.734z
			"/>
		<path fill="#FFFFFF" d="M443.095,223.043c-1.794-2.885-4.68-3.308-7.459-3.343c-2.886,0-7.46,1.056-7.46,4.997
			c0,3.132,3.378,3.87,7.53,4.645c4.75,0.915,9.676,1.76,9.676,7.072c-0.035,5.56-5.63,6.896-9.746,6.896
			c-3.836,0-8.199-1.583-10.099-5.348l1.688-0.845c1.513,2.991,5.384,4.469,8.41,4.469c3.025,0,7.847-0.845,7.847-5.208
			c0.035-3.694-4.047-4.504-8.094-5.277c-4.504-0.88-9.113-1.795-9.113-6.334c-0.105-5.208,5.313-6.826,9.36-6.826
			c3.519,0,6.579,0.563,9.008,4.188L443.095,223.043z"/>
	</g>
</g>
<linearGradient id="SVGID_1_" gradientUnits="userSpaceOnUse" x1="88.4862" y1="32.4654" x2="88.4862" y2="189.4329">
	<stop  offset="0" style="stop-color:#C90006"/>
	<stop  offset="1" style="stop-color:#990000"/>
</linearGradient>
<path fill="url(#SVGID_1_)" d="M148.636,54.156c-9.538-10.698-23.343-18.013-37.285-21.69c0,11.537,0,25.918,0,37.51
	c4.461,2.241,10.31,5.7,13.754,9.54c7.433,8.407,11.155,15.931,11.155,28.262c0,12.742-3.923,23.519-11.765,32.328
	c-8.657,9.76-20.358,14.637-35.095,14.637c-14.335,0-25.699-4.674-34.08-14.029c-7.44-8.403-11.159-18.771-11.159-31.104
	c0-12.744,3.92-23.517,11.765-32.328c2.51-2.83,5.314-5.19,8.341-7.193c0.058-12.417-0.003-25.223,0.058-37.625
	c-13.124,4.013-26.376,12.122-35.581,22.502C15.354,70.134,8.661,88.617,8.661,110.418c0,21.532,6.558,39.678,19.676,54.437
	c14.608,16.387,34.352,24.577,59.236,24.577c25.426,0,45.644-8.463,60.657-25.39c13.388-15.163,20.082-33.648,20.082-55.45
	C168.312,87.065,161.751,68.917,148.636,54.156z"/>
<path fill="#FFFFFF" d="M176.4,189.433v-96.93c0-17.375,5.985-32.273,17.951-44.696c11.97-12.422,26.54-18.635,43.718-18.635
	c10.143,0,18.766,1.215,25.866,3.64s14.23,6.89,21.401,13.401c6.762-6.086,13.623-10.448,20.59-13.084
	c6.967-2.638,15.116-3.957,24.448-3.957c17.307,0,32.253,5.608,44.829,16.82c12.58,11.21,18.868,25.189,18.868,41.937v101.504
	h-37.123V90.972c0-7.474-2.672-13.826-8.013-19.059c-5.344-5.23-11.735-7.849-19.172-7.849c-7.035,0-12.982,2.594-17.853,7.773
	c-4.867,5.182-7.304,11.385-7.304,18.609v98.987h-37.73V90.972c0-7.607-2.706-13.994-8.115-19.161
	c-5.412-5.164-11.97-7.747-19.676-7.747c-7.171,0-13.224,2.612-18.159,7.836c-4.935,5.225-7.403,11.5-7.403,18.826v98.91
	L176.4,189.433z"/>
<path fill="#FFFFFF" d="M523.085,143.992v41.789c-12.577,6.087-25.02,9.129-37.324,9.129c-18.936,0-36.516-6.963-52.747-20.895
	c-10.143-8.654-17.444-17.883-21.909-27.691c-4.461-9.804-6.694-21.535-6.694-35.196c0-22.316,8.013-41.349,24.039-57.106
	c16.026-15.753,35.197-23.633,57.512-23.633c22.853,0,42.464,7.744,58.831,23.228c16.363,15.487,24.547,34.454,24.547,56.903v78.507
	h-35.705v-79.522c0-12.577-4.765-23.158-14.301-31.747c-9.533-8.587-20.794-12.882-33.776-12.882s-24.008,4.531-33.067,13.591
	c-9.063,9.063-13.589,20.083-13.589,33.067c0,13.388,4.564,24.85,13.691,34.385c9.131,9.535,20.317,14.301,33.575,14.301
	c7.975,0,14.84-1.249,20.59-3.753C512.503,153.968,517.946,149.808,523.085,143.992z"/>
<linearGradient id="SVGID_2_" gradientUnits="userSpaceOnUse" x1="87.8932" y1="8.6923" x2="87.8932" y2="97.108">
	<stop  offset="0" style="stop-color:#C90006"/>
	<stop  offset="1" style="stop-color:#990000"/>
</linearGradient>
<rect x="71.606" y="8.692" fill="url(#SVGID_2_)" width="32.574" height="88.416"/>
</svg>
